<svg xmlns="http://www.w3.org/2000/svg" xmlns:xlink="http://www.w3.org/1999/xlink" viewBox="0 0 747.52 940.92" style=""><defs><style>.cls-1,.cls-15,.cls-19,.cls-33,.cls-48{fill:none;}.cls-2{clip-path:url(#clip-path);}.cls-3{fill:#242017;}.cls-4{fill:#c27343;}.cls-5{fill:#b56031;}.cls-6{fill:#bf6632;}.cls-7{fill:#f3a571;}.cls-8{fill:#e99d69;}.cls-9{fill:#231f20;}.cls-11,.cls-48,.cls-9{stroke:#7782a1;}.cls-11,.cls-15,.cls-19,.cls-33,.cls-48,.cls-9{stroke-miterlimit:10;}.cls-10{fill:#e18141;}.cls-11{fill:#d7dfec;}.cls-12{fill:#4a2a39;}.cls-13{fill:#18181c;}.cls-14{fill:#2e140e;}.cls-15{stroke:#697196;}.cls-16{fill:#8b3f29;}.cls-17{fill:#010101;}.cls-18{fill:#bf6333;}.cls-19{stroke:#eec0a8;stroke-width:0.25px;}.cls-20{fill:#ae4a28;}.cls-21{fill:#ac5f3a;}.cls-22{fill:#864829;}.cls-23{fill:#864828;}.cls-24{fill:#1d120e;}.cls-25{fill:#dab79b;}.cls-26{fill:#24110b;}.cls-27{fill:#ab9188;}.cls-28{fill:#572113;}.cls-29{fill:#72301a;}.cls-30{fill:#15090a;}.cls-31{fill:#bf6640;}.cls-32{fill:#933926;}.cls-33{stroke:#682815;stroke-width:0.5px;}.cls-34{fill:#c16a44;}.cls-35{fill:#37161a;}.cls-36{fill:#2a1810;}.cls-37{fill:#b5795b;}.cls-38{fill:#e17d5e;}.cls-39{fill:#f0a36f;}.cls-40{fill:#110b09;}.cls-41{fill:#040202;}.cls-42{fill:#6b2d1b;}.cls-43{fill:#e0553d;}.cls-44{fill:#b75235;}.cls-45{fill:#9c2a25;}.cls-46{fill:#df844f;}.cls-47{fill:url(#linear-gradient);}.cls-49{fill:#ae5326;}.cls-50{fill:#697196;}.cls-51{fill:#728ca2;}</style><clipPath id="clip-path" transform="translate(-95.79 -26.53)"><path class="cls-1 LJQUeund_0" width="956.47" height="956.47" d="M0 0 L956.47 0 L956.47 956.47 L0 956.47 Z"></path></clipPath><linearGradient id="linear-gradient" x1="475.18" y1="457.27" x2="511.86" y2="457.27" gradientUnits="userSpaceOnUse"><stop offset="0" stop-color="#18181c"></stop><stop offset="1" stop-color="#c27342"></stop></linearGradient></defs><title>BlackPortrait4x</title><g id="Layer_2" data-name="Layer 2"><g id="Layer_1-2" data-name="Layer 1"><g class="cls-2"><path class="cls-3 LJQUeund_1" d="M129.25,932.88L170.19,913.89L235.7,901.11L284.18,906.35L289.42,916.84L302.52,918.14L308.75,923.06L244.22,934.2L129.25,932.88Z"></path><path id="Neck" class="cls-4 LJQUeund_2" d="M371.97,334.76L373.93,354.42L373.93,408.79L380.32,443.84L393.58,469.72L402.76,500.51L424.7,539.49L470.23,501.16L519.04,423.86L539.68,360.64L538.69,355.4L526.25,365.88L502.83,377.18L480.88,389.3L463.36,391.1L424.05,385.54L396.21,365.23L371.97,334.76Z"></path><path class="cls-5 LJQUeund_3" d="M532.03,361.08L520.46,424.19L490.76,448.86L517.84,400.17L518.71,389.03L499.06,411.52L471.11,438.38L457.13,446.02L426.78,409.99L395.33,380.3L380.26,352.78L376.77,346.67L436.82,388.38L503.21,375.93L532.03,361.08Z"></path><path id="RightEar" class="cls-6 LJQUeund_4" d="M446.13,315.11h4.37s-2.84-36.69-2.84-38.21-7-38.87-7-38.87L425,218.81l-5-2.29-4.8-.11-3.06,3.27-3.28,6.12-1.74,8.73.43,15.72,7,11.8,1.31,7.86.22,9.61.44,9.6,2.18,9.39.87,8.3,8.3,9.61,9.39,1.31Z" transform="translate(-95.79 -26.53)"></path><path id="Face" class="cls-7 LJQUeund_5" d="M439.36,233.22l-1.74,26.64,2.18,17.91,4.81,18.34,2.62,11.36.87,12.23,6.11,16.16,10.05,21L483,380,492,391.76,522.78,414,570,416.65l40.62-18.34,27.08-24L652.5,345l7.86-37.56,6.11-38.87-2.18-31-3.5-15.29-7.86-24.89-.87-18.78L656,165.09l-16.16-19.22-30.14.44-21.83.87s-30.14,10-35.82,10.92-45.42,3.5-45.42,3.5-17,6.55-20.09,10S456,202.21,456,202.21l-11.79,11.36-5.24,17.9" transform="translate(-95.79 -26.53)"></path><path class="cls-8 LJQUeund_6" d="M384.19,178.08L399.7,166.73L431.8,156.68L458,161.49L482.46,155.15L515.87,166.51L532.25,178.52L548.63,185.51L549.72,190.31L536.4,193.81L544.7,210.4L556.93,230.06L544.04,257.13L543.61,292.07L523.08,322.64L519.59,301.24L499.71,294.26L470.23,299.71L457.35,302.12L426.56,297.97L405.81,302.34L399.05,308.67L396.86,320.46L395.33,330.94L390.75,338.37L359.74,292.73L350.78,245.78L346.2,208.87L345.98,195.12L350.13,192.06L376.33,187.69L379.5,184.58L354.06,174.37L331.79,192.28L347.51,265.65L361.05,311.51L387.69,357.8L420.44,385.32L468.49,390.12L517.84,369.16L552.34,332.91L572.43,263.03L578.55,195.33L575.93,127.64L532.69,106.67L446.21,119.78L343.14,154.72L358.86,169.57L371.97,185.29L384.19,178.08Z"></path><path class="cls-3 LJQUeund_7" d="M695.84,869.5L698.46,881.62L701.33,889.65L701.49,898.9L707.55,911.92L713.61,923.63L714.59,926.83L682.57,905.04L684.54,884.9L695.84,869.5Z"></path><path id="CompleteShirt" class="cls-9 LJQUeund_8" d="M331.49,927.64l26.2,1.31L380,932.88l5.24,10.49L466.44,946l171.64,6.55L756,967l60.27-2.62,6.56-1.31-27.3-21-12.67-12.67-2.4-6.11L836.8,500.51l-11.57-26-6.55-8.95L811,454.87l-9.6-10.26-16.38-13.33-13.54-8.08-9-5.45-8.29-7.21-9.61-4.15L730,400.93l-7.65-7.21-10.7-6.11L691.8,377.13l-9.82-2-7.87-6.55-7.2-7.42-9.61-6.12-5.24-3.49-69.44,153.3,5.67,2.18L586.11,511l-.33,3.06-.54,3.71-.33,3.71-.55,1.64-5.67,7.32-1.86,1.85L573,534.47l-3.93,3.16-6.23,4-2,1.09-1.53-4,.65-4.36.66-3.5,1.31-3.05-8.73,7.2-4.48,4.37-3.5,4.91-5.67,6.88-8.08,5.24-6.34,5.9-2.4,3.27-10.48-17.9-10.48-16.16L495.92,521l-4.8-22.5L485,481.29l-7.2-14.63.43,8.95,2.19,10.92,1.09,9.17-2,9.83-.87,5.46-3.49,4.37-4.37-10.27-2.62-8.51-1.31-21.18-1.09-15.07,4.15-89.53-3.22,1.36.81-2.57.93-4.47-.49-2.3-1.36-1.58-2-.38h-3.28l-2.89,1.42-2,1.58-7.75,3.55-5.46,1.09-3.39-.65-2.95.43-3.05.77-4.26.44-4.26,1.09-4.15-.11-3.71-.44-6,.22-4,2.18-13.1,5.68L387.5,382l-1.64,2-3.71,1-5.13.22-7.43,2.07-6.11,2-6,3.06-16.81,8.18-12,6.34L316,412.72,305.5,418l-5.24,3.72L296.77,425l-7.86,5.24-3.28,4.15-2.62,3.5L280,441.77l-2.4,3.27-7.64,9.77-3.28,5.57L263,467.1l-3.11,5.4-5.24,9.83-3.61,6.88L248,491.83l-5.73,4.26L237,501.16l-4.26,5.41-2.95,7.37.66,3.93s.49,2.78,1,6.39a43.43,43.43,0,0,1,.49,4.91l-3.6,7.21-3.11,6.22L222.25,551l-3.11,7.37-2.62,7.7-2.79,6.22-3.11,8.68s-1,12.12-1.31,13.27-4.42,6.22-4.42,6.22l-7.7,14.53-1.75,6.76L193,635l-3.49,3.49-6.12,3.93-5,5.46-8.08,10.48-4.15,4.37-1.53,4.8,1.53,7-6.33,19.55-3.28,11.79L153,716.37,150,722.92l-3.27,11.79-.66,8.52,13.1-4.59L173,734.38l11.47.66,7.53,3.6,3.27,8.19,25.23,21.95,27.18,21L263,806.45l10.15,7.2,1.31-5.89.33-6.23,4.26-4.91,4.26-6.22,1.31-5.24,6.22-7.21,15.07-11.14,13.1-22.6,7.86-15.07,4.59-17,.33,38L340.33,777l6.55,21L359.66,852l2,17.36,3.61,15.72-6.55,7.86-7.21,7.21L343.28,909,342,922.08Z" transform="translate(-95.79 -26.53)"></path><path id="LeftHand" class="cls-10 LJQUeund_9" d="M235.27,932.12L257.98,930.37L310.39,915.09L352.75,904.17L399.92,888.01L435.73,871.41L467.18,856.56L502.55,840.84L513.03,836.47L520.46,833.42L526.79,831.67L530.07,830.58L532.91,830.8L537.93,829.7L540.99,831.67L545.79,834.51L550.38,836.25L553,837.78L554.74,839.75L557.58,843.9L560.86,846.52L563.26,848.48L567.41,852.63L570.47,857L572.65,859.62L574.83,864.64L577.45,870.1L579.64,876.44L583.13,882.77L585.53,886.26L587.06,891.07L589.47,894.56L593.18,898.71L594.49,900.46L595.36,909.63L597.11,916.62L596.89,922.73L598.64,929.06L598.64,932.78L235.27,932.12Z"></path><path id="LeftShoulder" class="cls-9 LJQUeund_10" d="M533.13,796.62L531.49,784.83L528.54,767.47L525.92,752.4L530.5,747.82L538.69,741.59L545.25,714.08L548.19,697.7L551.8,679.68L559.99,668.55L570.47,664.94L574.4,663.63L574.4,650.2L574.4,639.07L574.4,632.84L577.67,622.03L586.84,605.33L592.09,595.17L599.29,590.26L604.21,581.09L611.41,567.66L621.89,551.28L640.56,531.3L658.58,512.3L671.68,502.8L687.08,493.63L701.16,482.49L714.92,474.96L731.3,468.08L740.47,471.03L745.71,480.53L747.02,484.79L746.69,490.03L745.71,495.92L741.45,503.13L739.81,512.96L739.49,527.37L742.43,538.5L742.76,551.61L743.42,564.38L741.12,587.31L741.12,597.47L741.78,604.67L742.43,625.31L744.07,640.38L743.42,651.18L741.45,657.08L731.63,669.2L728.68,678.7L727.69,689.51L725.73,701.63L722.13,715.71L721.8,727.18L720.16,736.02L718.85,751.42L718.85,761.57L716.88,771.07L715.9,782.54L715.9,792.36L715.25,799.9L711.64,808.74L709.02,819.55L706.08,840.51L703.46,852.96L692.97,875.24L689.7,887.03L687.73,890.96L682.49,898.82L674.96,908.97L669.06,915.52L666.11,918.14L661.86,918.8L658.91,918.14L590.77,839.2L560.31,812.02L532.47,802.19L533.13,796.62Z"></path><path id="LeftHandJoin" class="cls-11 LJQUeund_11" d="M509.27,837.95L518.11,834.29L518.71,829.7L518.38,828.07L521,828.72L526.25,830.03L536.4,830.69L544.92,832.98L550.49,838.55L554.09,841.17L560.31,849.03L568.83,854.93L570.79,861.15L576.69,871.63L580.29,877.86L586.52,889.65L593.07,900.46L595.69,909.96L596.34,917.49L597.33,924.04L597.33,930.26L598.96,933.21L610.43,932.56L618.62,933.21L635.98,932.56L641.55,931.9L647.77,929.61L654.32,923.06L658.58,919.13L660.87,912.9L662.51,905.7L663.49,899.47L664.8,888.34L664.8,881.13L664.15,869.99L662.18,856.24L659.24,846.74L654.98,839.53L650.72,829.7L645.48,821.19L640.56,817.26L622.22,799.57L602.57,786.14L592.74,784.17L577.35,780.9L560.97,781.55L551.8,784.17L542.95,789.09L535.75,794.98L531.16,800.88L526.57,806.77L521.33,812.02L518.06,816.6L514.13,821.84L511.51,826.43L510.2,832L509.27,837.95Z"></path><path id="LeftHandDetail" class="cls-12 LJQUeund_12" d="M518.28,834.29L520.3,833.47L522.86,832.71L526.19,831.89L529.03,830.9L530.01,830.63L532.91,830.9L533.62,830.58L536.51,830.74L541.86,832.22L544.97,834.07L545.68,834.51L546.61,834.78L545.03,832.98L543.5,832.65L541.64,832L536.41,830.64L533.59,830.47L526.29,830.05L521.95,828.99L518.34,828.02L518.67,829.73L518.28,834.29Z"></path><path id="LeftCollarBlack" class="cls-13 LJQUeund_13" d="M465.87,515.9L482.03,504.99L488.58,497.12L490.32,484.46L492.51,482.27L504.3,450.39L513.91,415.02L516.97,403.66L496,444.71L488.58,454.32L479.84,477.91L475.48,486.2L470.67,493.63L466.74,499.31L464.99,503.68L463.68,511.54L465.87,515.9Z"></path><path id="LeftCollar" class="cls-9 LJQUeund_14" d="M492.51,480.53L497.75,473.54L508.67,473.54L522.21,479.65L537.49,489.7L540.55,491.88L546.23,483.15L551.47,471.79L555.4,456.07L552.78,442.09L552.78,425.93L557.58,415.02L561.51,391.87L565.88,367.41L567.63,348.19L562.39,335.09L555.84,326.36L549.72,338.15L546.23,341.64L543.61,349.07L539.68,353.44L534.87,358.68L531.82,362.61L495.56,459.56L489.01,473.98L492.51,480.53Z"></path><path id="RightCollarBlack" class="cls-13 LJQUeund_15" d="M378.52,377.02L376.77,391.87L373.71,410.65L371.97,434.23L368.04,450.83L370.22,465.24L375.9,483.15L379.39,488.83L382.88,484.46L385.5,473.1L384.63,460L382.45,449.08L380.26,436.85L379.83,428.12L380.7,411.96L381.57,404.1L382.45,391L378.52,377.02Z"></path><path class="cls-14 LJQUeund_16" d="M415.53,317.29L420.34,317.73L425.69,318.61L420.23,319.15L416.4,320.24L415.42,319.37L415.53,317.29Z"></path><path class="cls-8 LJQUeund_17" d="M418.15,317.19L407.01,325.26L406.8,349.5L407.89,361.73L405.05,371.34L384.09,354.75L394.79,332.69L399.81,313.36L408.76,303.21L415.75,301.24L418.15,317.19Z"></path><path id="RightCollar" class="cls-9 LJQUeund_18" d="M313.88,435.98L328.73,441.22L337.46,444.28L354.06,444.28L359.3,435.98L364.98,435.98L369.78,442.09L373.28,416.76L375.46,394.49L377.64,380.51L377.21,367.41L376.77,352.56L374.15,344.26L369.35,347.32L360.61,356.06L352.75,372.21L340.52,394.49L329.6,412.39L322.18,427.68L313.88,435.98Z"></path><path id="RightHand" class="cls-10 LJQUeund_19" d="M28.03,784.83L35.56,780.24L45.06,775.99L55.55,773.69L63.41,774.35L76.18,776.31L94.53,782.54L114.51,794.66L134.16,820.53L122.04,845.1L121.06,862.46L117.78,883.42L112.87,904.72L104.02,926.99L95.51,934.85L71.92,934.85L30.32,933.54L3.79,933.21L4.77,931.25L4.45,923.06L4.12,903.4L4.12,884.41L6.41,867.05L5.1,848.7L7.72,832.65L10.34,821.51L14.93,807.43L22.14,794.98"></path><path id="RightHandJoin" class="cls-11 LJQUeund_20" d="M104.49,846.08,96.3,831.67l2-16.71,5.57-18,18-22.6,9.5-8.19,5.24-10.48,4.59-7.21,1.31-4.59,9.17-4.58L164.43,736l19-2.62,28.17,11.79L226,753.06l6.88,5.56,9.18,6.23,7.53,2.29,6.88,7.53,8.84,9.5,7.86,7.87,2,12.11-2,10.81-1.31,4.26-3.93,4.59L265,830l-2.94,5.57s-1.31,4.91-2.62,6.88a70.32,70.32,0,0,0-3.61,7.21l-1.64,5.89-2.29,6.22-2.95,4.26L245,867.7l-7.2,5.57-2,5.57a61.51,61.51,0,0,0-6.55,2c-1.31.66-9.5,2-9.5,2l-2.95,1.64.66-14.09,4.91-8.84L229,850.34l.66-3.28L210.29,822.5l-10.81-5.57L191.62,813l-9.5-3.28-16.38-5.57-16.37-1.63L133,808.85l-6.77,4.8-3.93,6.56-5.68,11.57-5.68,10-2.84,5.24Z" transform="translate(-95.79 -26.53)"></path><path id="ButtonBand" class="cls-15 LJQUeund_21" d="M425.03,874.91L424.05,800.88L427.65,742.9L427,703.92L425.69,671.17L432.24,629.57L436.82,578.79L439.77,553.25L444.68,545.38L456.8,541.13L467.07,515.14L463.57,512.19L466.19,501.27L452.55,515.25L443.81,524.64L428.31,535.23L427,539.05L425.03,540.8L416.84,549.32L407.67,560.45L402.1,566.35L399.15,585.67L397.84,606.31L393.91,632.51L391.29,668.55L392.6,705.89L394.89,720.63L389.65,753.06L386.05,789.09L388.34,845.75L388.67,876.22L389.65,891.61L403.08,886.04L422.41,877.86L425.03,874.91Z"></path><path id="ExtraHair1" class="cls-16 LJQUeund_22" d="M487,180.59s11,4.26,15.39,4.59,16.71,3.17,23.15.55,16.71-7.54,16.71-7.54,3.93-2.73,5.35-5.24,2-3.27,2-3.27l9.72-3.39,1.75,2.07-11,2.84-3.28,4.92s-2.29,3.6-4.58,4.36S530.21,187,528,186.93s-21.51,3.49-25.22,1.09-13.65-1.64-18-4.59-4.26-3.93-4.26-3.93Z" transform="translate(-95.79 -26.53)"></path><path id="FoldingDetailButton" class="cls-15 LJQUeund_23" d="M363.45,735.37L364.11,669.2L362.14,589.93L354.93,493.63L346.42,451.05L365.42,461.53L368.04,536.87L383.76,724.23L386.82,779.59L383.54,741.81L364.76,496.25L364.43,462.84L348.38,453.67L357.23,499.85L363.45,735.37Z"></path><path id="Beard" class="cls-13 LJQUeund_24" d="M352.64,292.18L360.17,315.44L368.36,330.51L372.95,341.64L378.85,351.14L390.64,362.93L405.38,375.38L421.75,386.85L444.03,393.73L459.1,394.05L483.34,390.12L499.06,382.59L520.02,372.11L537.38,354.09L552.78,334.76L558.67,314.13L564.57,292.84L571.12,240.75L570.14,215.86L567.85,216.19L569.48,232.57L568.17,257.46L561.62,296.77L553.43,323.3L545.9,333.78L540,340.33L529.19,353.76L516.75,362.61L506.59,371.45L492.83,377.35L479.08,383.57L458.44,386.85L423.39,381.28L408.98,370.47L403.41,366.54L384.41,351.14L372.95,333.45L362.47,313.47L354.93,292.51L348.71,265.65L343.8,242.06L343.14,215.53L343.14,206.69L341.18,223.4L341.18,234.2L341.83,248.62L345.11,261.06L350.68,279.41L352.64,292.18Z"></path><path id="Hair" class="cls-17 LJQUeund_25" d="M656,165.09l-3.93,13.54.87,18.78,3.17,9.93,4.69,15,3.83,25,2.29,24.89,8.84,6.88,6.55.33-7.86-4.92,3.93-6.88-3.93-11.79,5.24-10.48,10.81-15.07L697,217.5l5.57-2.29,3.28-10.16-2.62-21.62L702,169l-1.31-6.22-4.59-3,6.55-15.07,2.29-4.26L701.3,132l-2-3.61,9.82-2,9.83-2,2-4.26-10.15-3.93-5.9-7.2,4.26-10.81.33-2.62-14.08,4.91,3.93-12.77,5.24-11.14,2-2-15.72,1.64S680.67,70.75,679,69.11s-18.35-15.06-18.35-15.06l-20.3-6.23-26.54-4.58-16.7-5.9-18.67-5.89H550.62l-14.41-4.92-11.46,3.93-3,3.93-12.12.33-19,6.88L476.6,48.48l-16.05,7.2a48.21,48.21,0,0,1-3.61,5.57c-1,1-5.24,5.57-6.22,6.88s-8.84,10.81-8.84,10.81l-2.3,7.21-13.1,19.65L416,122.18l-1.64,6.55-6.22,13.43-3.28,7.21-.65,8.19,1,16.7L409.12,190l3.28,18,2.62,9.5,4.91-1,2,9.82,2.63,12.78,5.89,6.55-3,15.39-1,6.55-.33,4.92,3.93.65,4.59-5.24,2.95-8.08.65-13.86,2.62-13.76-1.63-10.48,1.63-5.9,18-1,11.14-4.26,5.56-12.12,6.88-13.76,8.52-6.55L511,173l23.91-4.59L548,171l24.9-7.21,19.32-10.48,2.63-3.93,22.92,6.22,10.16-3,12.77-9.5,2.3,12.12Z" transform="translate(-95.79 -26.53)"></path><path id="LeftEar" class="cls-18 LJQUeund_26" d="M666.91,272.86l10-32.27,10.15-8.19,5.57,6.06,1.31,5.73-.49,8.19-1.8,9.67-1.48,11.3s-1.8,11.79-2.62,14.9S684.92,300,684.92,300l-2.78,11.3-3.93,5.57-6.39,2.79-9,1.14-4.09-3.93Z" transform="translate(-95.79 -26.53)"></path><path id="RightSpecsDetail" class="cls-19 LJQUeund_27" d="M452.52,241.82s.9,33.14,7.94,34.42,56.84,2,63.8.63S535.39,258,535.39,258l6-19.41-4-6.79-29-5.08-26.45-1.23-27.11,2.05-2.7,4.58Z" transform="translate(-95.79 -26.53)"></path><path id="NoseLeftShadow" class="cls-20 LJQUeund_28" d="M468.76,223.23L468.43,242.88L464.34,252.38L471.71,263.03L475.97,259.1L489.72,262.21L484.32,246.49L476.95,231.75L471.54,225.36L468.76,223.23Z"></path><path id="LeftSpecsDetail" class="cls-19 LJQUeund_29" d="M572.24,262.48a39.19,39.19,0,0,0,8.85,13c6.11,5.78,63.33.54,66.6-1.64s7.1-20,7.1-27.84-2.08-9.83-2.08-9.83l-21.29-4.37-21.94-1.2-15.84-.44L571,232.78l-4.15,3.5.88,11.35Z" transform="translate(-95.79 -26.53)"></path><path id="SpecsRightShadow" class="cls-21 LJQUeund_30" d="M440.59,239.44L445.01,231.91L447.63,224.05L448.62,217.99L445.83,220.12L441.57,230.27L440.59,239.44Z"></path><path id="LeftEyebrowHighlight" class="cls-22 LJQUeund_31" d="M470.89,204.72L482.46,195.12L491.85,191.19L520.68,182.01L532.25,181.58L544.04,183.98L547.54,189.87L549.94,196.86L541.86,194.68L528.76,196.21L514.13,198.83L509.98,199.92L506.48,201.23L510.2,204.07L498.84,202.76L497.31,201.45L491.85,202.54L489.23,203.63L471.33,206.91L460.41,208.44L461.06,207.34L470.89,204.72Z"></path><path id="RightEyebrowHighlight" class="cls-23 LJQUeund_32" d="M480.53,217l11.79,6.71,14.08.33,12,1.64,1.47,2.29,11.47,2.46,14.9,2.95-15.56-5.9-3.76-7.21-6.06-7.2-10.65-2.62s-1.14,3.6-3.11,3.44-2.46-4.26-2.46-4.26l-5.57-1L489,206l-5.4,2.95-6.22,1.31h-3.77l-2.62-1.8,8.19,9.17Z" transform="translate(-95.79 -26.53)"></path><path id="SpecsFrame" class="cls-24 LJQUeund_33" d="M345.11,189.33L353.62,200.47L376.88,197.84L406.36,198.17L422.74,201.45L433.88,202.76L446.65,205.38L462.37,207.34L482.35,203.41L506.26,203.09L527.56,203.74L542.3,205.38L555.07,207.02L563.26,208.33L567.19,209.97L569.81,217.5L565.23,218.15L559,222.08L556.38,213.24L553.43,209.97L541.64,207.34L525.92,205.05L506.26,204.4L490.54,206.03L481.7,206.03L476.13,208L473.18,211.93L473.18,217.5L474.49,227.98L477.77,235.84L477.77,238.46L474.16,235.19L471.54,225.36L469.91,217.83L467.61,213.24L464.67,212.59L459.1,211.28L451.24,209.64L447.63,213.24L444.03,223.07L441.41,233.22L438.79,236.17L436.82,236.5L440.75,225.36L443.05,216.84L441.74,208.65L438.13,206.36L428.63,203.41L419.13,202.43L402.1,200.47L382.45,200.14L368.36,200.79L360.5,201.78L357.23,206.69L357.23,213.57L357.23,216.52L354.28,211.93L353.62,209.97L346.09,207.02L346.74,200.47L343.47,195.22L345.11,189.33Z"></path><path id="RightEyeBack" class="cls-20 LJQUeund_34" d="M381.96,212.34L385.56,208.9L395.66,206.36L401.94,204.81L405.05,205.05L408.57,214.06L402.84,217.01L399.32,213.49L401.2,210.37L402.35,208.16L401.2,206.03L395.88,211.52L395.71,215.78L391.37,213.49L385.72,211.6L382.61,212.26L386.3,215.45L389.74,218.15L399.56,219.55L408.32,217.99L412.75,215.62L409.8,210.7L405.46,205.3L405.46,204.4L405.38,203.82L413.73,203.5L429.62,208.82L431.99,210.7L426.18,219.38L419.05,221.02L406.44,222.33L397.27,222.99L386.13,220.45L379.42,216.19L376.63,214.06L378.03,213L381.3,211.36L384.58,209.47L381.96,212.34Z"></path><path id="RightEyeHighlight" class="cls-25 LJQUeund_35" d="M381.9,211.49L393.37,206.47L395.66,206.36L393.26,208.54L393.8,212.91L396.97,217.28L401.45,220.12L406.25,220.45L409.85,216.08L411.93,210.84L410.29,206.91L408.11,204.29L407.34,203.63L411.93,204.62L419.57,209.64L422.08,212.91L423.06,215.31L422.3,215.97L417.82,218.04L409.53,219.9L405.49,221.1L397.73,220.56L392.93,220.66L387.91,217.06L381.9,211.49Z"></path><path id="RightEyeBlack" class="cls-26 LJQUeund_36" d="M394.78,212.37A7.81,7.53 0,1,1 410.4,212.37A7.81,7.53 0,1,1 394.78,212.37"></path><path id="RightEyeReflection" class="cls-27 LJQUeund_37" d="M402.14,210.73A1.7,1.86 0,1,1 405.53999999999996,210.73A1.7,1.86 0,1,1 402.14,210.73"></path><path id="HairDetail2" class="cls-17 LJQUeund_38" d="M489.89,4.42L504.95,7.86L518.06,16.7L534.93,21.13L532.63,18.34L521,15.56L507.74,5.08L493.33,0.16L483.83,1.64L483.5,3.11L489.89,4.42Z"></path><path id="HairDetail1" class="cls-17 LJQUeund_39" d="M464.01,3.11L478.75,4.91L491.52,8.68L494.64,10.32L490.87,6.06L482.68,4.91L463.36,2.78L464.01,3.11Z"></path><path id="MouthShadow" class="cls-28 LJQUeund_40" d="M434.86,340L447.31,343.28L464.34,341.97L476.13,341.31L486.94,340.66L474.49,345.57L460.74,345.9L445.67,346.23L434.86,340Z"></path><path id="NoseShadow" class="cls-29 LJQUeund_41" d="M477.6,280.88L474,286.61L466.79,289.56L476.29,297.42L493,298.57L487.76,291.85L484.32,286.78L485.79,279.57L477.6,280.88Z"></path><path id="LipRightBlack" class="cls-30 LJQUeund_42" d="M488.8,319.26L496.66,318.39L502.01,315.77L505.83,315.22L504.41,318.28L488.8,319.26Z"></path><path id="Moustache" class="cls-31 LJQUeund_43" d="M405.38,314.78L418.48,307.58L435.84,302.34L454.51,303.97L464.34,303.32L481.37,303.32L497.09,307.9L504.95,317.4L506.92,318.71L512.82,323.3L516.75,325.59L521.66,313.14L504.3,296.11L479.08,296.11L461.72,299.06L459.75,300.7L450.58,293.16L443.05,290.87L426.34,296.77L407.34,304.63L400.79,311.83L398.83,318.39L403.41,319.04L405.38,314.78Z"></path><path id="NoseDetail1" class="cls-32 LJQUeund_44" d="M426.67,276.3L430.76,281.05L432.4,283.83L436.33,281.54L440.43,284.32L445.5,280.06L445.67,278.26L441.74,274.33L436.66,273.68L430.11,274.17L426.67,276.3Z"></path><path id="NoseDetail" class="cls-33 LJQUeund_45" d="M524.75,285.14l-3.61,5.57-.49,5.4,2.13,6.06,3.11-1.47,3.44-.49h9l3.77,5.07,5.4,4.1,5.08,2.78,6.55.49,4.42-4.25,4.92-3.44,6.55-2.3s7.53-.32,8.19-.32,1.47,1.63,1.47,1.63l-.65,2-3.12.82-8.18,1.47-1.64.66" transform="translate(-95.79 -26.53)"></path><path id="RightEyeBags" class="cls-34 LJQUeund_46" d="M375.24,225.69L392.6,223.23L408.16,224.38L418.32,220.12L419.63,220.61L412.42,225.36L400.95,227.98L388.34,227.98L375.24,225.69Z"></path><path id="RightEyeDetail" class="cls-35 LJQUeund_47" d="M371.48,215.21L378.85,212.59L383.76,210.13L390.64,207.34L397.52,205.95L406.03,205.05L413.07,205.71L422.41,208L423.23,207.34L410.15,203.6L399.32,203.91L383.92,206.53L375.08,210.46L370.98,213.24L371.48,215.21Z"></path><path id="RightEyebrow" class="cls-36 LJQUeund_48" d="M375.08,184.58L383.43,187.2L390.47,193.42L396.86,196.53L407.01,195.55L419.95,198.66L423.72,196.04L427.49,195.22L422.08,191.13L418.81,186.54L395.55,182.12L387.03,182.12L379.5,184.58L376.88,182.94L377.04,184.41L375.08,184.58Z"></path><path id="LeftEyebrow" class="cls-36 LJQUeund_49" d="M487.27,199.48L505.17,199.48L528.32,194.46L539.46,193.15L547.1,194.46L550.81,195.55L550.38,188.13L549.5,185.72L532.91,182.67L516.31,185.72L502.55,187.91L493.82,189.22L487.49,197.95L487.27,199.48Z"></path><path id="LeftEyeUpDetail" class="cls-37 LJQUeund_50" d="M472.2,214.11L472.85,208.65L485.74,204.72L517.4,206.47L534.65,208.87L551.03,212.8L554.96,216.52L546.23,223.94L538.8,223.72L529.85,223.5L531.16,221.32L529.36,218.81L509.98,221.97L500.59,221.54L500.59,225.03L494.69,224.38L486.18,222.19L481.59,223.5L481.37,225.03L485.08,227.43L479.84,228.96L477.66,224.6L474.38,221.54L473.51,220.66L472.2,214.11Z"></path><path id="LowerLipDetails" class="cls-38 LJQUeund_51" d="M519.51,349.72l9.82,7.43L533.7,364l11.79,2.62H572l11.46-6.77,9.72-9.83,7.53-5.57-23.91,2.4-1.53,2.52,1.64,3.05s.44,2.62-1.42,3.39-8.41,3.27-8.41,3.27l-21.4-.11-11.46-4.36-8.3-3.93-4.37-2.08,2-.44-1-2.18-6.44-.87-1.2,1.2,1.2,2.84,2.51.76Z" transform="translate(-95.79 -26.53)"></path><path class="cls-39 LJQUeund_52" d="M425.52,317.89L435.68,317.73L446.16,321.83L483.99,319.53L486.12,326.25L479.9,332.31L456.15,334.44L431.09,326.25L423.72,320.19L425.52,317.89Z"></path><path id="LeftEyeBack" class="cls-25 LJQUeund_53" d="M486.94,220.28L491.69,221.18L499.31,224.05L516.26,225.2L522.89,224.87L529.36,218.81L532.63,217.66L523.38,209.56L506.76,207.67L499.55,208.9L488.25,217.25L487.02,218.4L486.94,220.28Z"></path><path id="LeftEye" class="cls-40 LJQUeund_54" d="M502.65999999999997,215.42A7.62,7.86 0,1,1 517.9,215.42A7.62,7.86 0,1,1 502.65999999999997,215.42"></path><path id="LeftEyeIris" class="cls-27 LJQUeund_55" d="M509.85999999999996,214.06A1.97,1.97 0,1,1 513.8,214.06A1.97,1.97 0,1,1 509.85999999999996,214.06"></path><path id="LeftEyeUpperBlack" class="cls-41 LJQUeund_56" d="M582.56,245.34l8.68-6.22,7.13-4.1,6.47-.57,7.61.57,5.9,1.39,9.33,7.87.82,1.39,6.39-.74.65-1.47s-2.45-2.3-3.11-2.79-10.15-4.5-10.15-4.5L616.22,234l-5,.16-3.85-1.14L603,232.4l-5.15.9-3.77.82H588l-4.18,4.1Z" transform="translate(-95.79 -26.53)"></path><path id="NoseMiddleDetail" class="cls-42 LJQUeund_57" d="M462.15,283.77L472.42,274.82L479.24,276.13L469.8,279.63L463.36,286.12L454.95,284.87L441.74,274.33L442.56,273.68L454.51,283.12L462.15,283.77Z"></path><path id="MiddleLip" class="cls-43 LJQUeund_58" d="M433.44,319.81L441.63,324.06L461.61,325.16L480.39,321.99L490,319.48L485.63,318.5L440.43,318.28L433.44,319.81Z"></path><path id="UpperLip" class="cls-44 LJQUeund_59" d="M512.3,343.61l26.53,1,17.8,1.09,25.44-.43,19.87-2.08,2.19-1.64-10.92-1.85-4.37-2.4s-9.39-2.52-10.05-1.86-6.44-2.62-11.9-1.09-6.55,2.07-11.68,3.71-9.28-7.64-17.14-4.91-15.51,4.69-15.51,4.69l-8.73,4Z" transform="translate(-95.79 -26.53)"></path><path id="LipMiddleDetail" class="cls-45 LJQUeund_60" d="M414.55,317.89L419.3,317.4L426.34,317.73L440.92,317.89L443.54,317.08L452.55,319.53L461.55,318.55L476.13,317.89L487.27,317.4L498.89,317.4L503.64,314.62L509.21,316.09L502.5,318.39L493,319.2L477.93,319.04L456.8,319.86L446.65,320.35L441.74,318.71L427.32,319.7L418.64,319.7L416.02,320.51L414.55,317.89Z"></path><path id="NoseDetail-2" data-name="NoseDetail" class="cls-33 LJQUeund_61" d="M489.72,262.21L494.15,269.25L492.67,274.49L488.9,277.44"></path><path id="NeckDetail1" class="cls-46 LJQUeund_62" d="M426.56,532.72L421.1,485.77L417.61,471.14L431.36,459.78L451.67,459.78L472.85,470.05L473.73,475.07L483.55,467.86L483.77,485.55L432.89,537.3L427,539.05L426.56,532.72Z"></path><path id="RightCollarShadow" class="cls-47 LJQUeund_63" d="M479.54,416.87l18.78,45.21L511,490.68l.87,10.05-17.68-31.89L487,454.65s-.44,14.63,0,15.29,4.15,14.85,4.15,14.85l.65,9.6-1.52,2.84-15.07-33.84,2.18-49.58Z" transform="translate(-95.79 -26.53)"></path><path id="LeftCollarBorder" class="cls-48 LJQUeund_64" d="M426.01,539.65L432.78,537.41L460.24,509.52L465.81,504.27"></path><path class="cls-49 LJQUeund_65" d="M576,249.11l23.09,6.55,19.17-.33,3.43-2.62,5.9-5.4,16.22-.17-9.18,8.19s-24.89,3.93-25.55,3.93-15.06-3.6-15.06-3.6Z" transform="translate(-95.79 -26.53)"></path><path class="cls-50 LJQUeund_66" d="M426.98,540.1L413.02,531.85L408.87,527.04L402.54,518.96L391.84,511.54L382.67,502.8L376.99,497.78L374.37,494.72L377.86,491.01L380.26,487.08L381.14,490.57L379.39,492.32L377.86,493.63L377.64,495.38L380.26,498.22L385.29,503.02L392.49,510.44L399.26,515.03L406.69,522.46L411.27,527.7L426.98,540.1Z"></path><path class="cls-50 LJQUeund_67" d="M228.82,705.56L235.05,694.42L232.75,673.79L227.19,647.91L224.24,624.33L223.25,593.53L222.27,548.33L223.91,515.25L223.91,490.68L222.27,577.81L222.93,617.45L225.88,651.51L219.98,654.79L218.67,669.86L217.69,681.65L228.82,705.56Z"></path><path class="cls-50 LJQUeund_68" d="M94.63,618.98L88.52,621.6L84.37,628.15L81.09,636.88L85.03,643.65L90.48,646.93L94.63,618.98Z"></path><path class="cls-50 LJQUeund_69" d="M203.82,701.52L210.81,690.38L216.49,683.39L217.69,681.65L210.15,686.67L203.6,696.5L201.64,700.21L203.82,701.52Z"></path><path class="cls-50 LJQUeund_70" d="M223.04,694.31L212.56,703.49L211.25,704.14L197.27,699.55L182.86,691.04L156.43,679.03L135.69,670.29L106.43,660.68L84.81,649.77L78.91,641.47L77.16,637.97L80.44,632.95L84.37,628.15L82.84,636.23L82.62,640.81L89.61,647.14L101.19,654.13L119.53,663.52L146.39,673.57L166.91,682.96L192.25,694.31L201.64,699.12L209.93,701.74L223.04,694.31Z"></path><path class="cls-50 LJQUeund_71" d="M61.6,710.47L72.91,703.27L85.68,702.12L92.4,706.71L92.4,709.33L61.6,710.47Z"></path><path class="cls-50 LJQUeund_72" d="M139.73,721.45L145.46,733.89L147.26,736.68L146.77,730.13L143.82,721.61L138.91,721.45L139.73,721.45Z"></path><path class="cls-50 LJQUeund_73" d="M148.9,472.5L143.5,478.24L141.37,483.64L139.89,492.16L144.48,502.15L149.39,506.57L155.12,513.28L168.88,525.24L182.64,537.52L203.6,553.74L221.62,564.38L206.71,554.23L185.09,538.5L173.3,528.02L156.11,512.79L147.26,502.15L143.5,494.29L143.66,484.79L146.93,479.38L149.39,474.14L151.19,470.87L148.9,472.5Z"></path><path class="cls-50 LJQUeund_74" d="M477,656.75L515,663.74L554.31,655.88L572.21,642.56L573.52,637.32L570.25,646.27L563.91,651.08L555.4,656.97L547.54,658.06L513.91,665.05L476.35,657.85L477,656.75Z"></path><path class="cls-50 LJQUeund_75" d="M572.13,684.38,571,702.72l-3.71,19.65-3.06,18.78-2.18,20.09,1.83,16.88.13,1.25,1.55,19.9.2,2.59-.44,12.67-1.52,14.19L582,834.84l19,5.67,11.14,2.19h1.09l1.53-2-1.53.22h-2.62s-13.1-3.28-15.07-3.49-19.65-5.9-19.65-5.9l-10.7-3.49L566.46,801,563,762.55l8.52-58.3Z" transform="translate(-95.79 -26.53)"></path><path class="cls-50 LJQUeund_76" d="M473.02,693.93L489.23,700.15L503.81,704.9L526.57,708.02L539.84,705.07L547.37,703.27L547.05,704.9L539.18,706.71L528.38,708.84L514.45,707.85L494.31,702.45L473.02,694.91L473.02,693.93Z"></path><path class="cls-51 LJQUeund_77" d="M543.39,744.54L531.6,751.09L539.46,752.62L553.87,754.58L543.39,744.54Z"></path><path class="cls-51 LJQUeund_78" d="M574.23,647.91L571.61,655.93L566.37,664.78L565.06,667.56L574.07,664.29L574.73,662.81L574.23,647.91Z"></path></g></g></g><style data-made-with="vivus-instant">.LJQUeund_0{stroke-dasharray:3826 3828;stroke-dashoffset:3827;animation:LJQUeund_draw 6666ms ease 0ms forwards;}.LJQUeund_1{stroke-dasharray:374 376;stroke-dashoffset:375;animation:LJQUeund_draw 6666ms ease 42ms forwards;}.LJQUeund_2{stroke-dasharray:637 639;stroke-dashoffset:638;animation:LJQUeund_draw 6666ms ease 85ms forwards;}.LJQUeund_3{stroke-dasharray:557 559;stroke-dashoffset:558;animation:LJQUeund_draw 6666ms ease 128ms forwards;}.LJQUeund_4{stroke-dasharray:244 246;stroke-dashoffset:245;animation:LJQUeund_draw 6666ms ease 170ms forwards;}.LJQUeund_5{stroke-dasharray:817 819;stroke-dashoffset:818;animation:LJQUeund_draw 6666ms ease 213ms forwards;}.LJQUeund_6{stroke-dasharray:1646 1648;stroke-dashoffset:1647;animation:LJQUeund_draw 6666ms ease 256ms forwards;}.LJQUeund_7{stroke-dasharray:140 142;stroke-dashoffset:141;animation:LJQUeund_draw 6666ms ease 299ms forwards;}.LJQUeund_8{stroke-dasharray:2910 2912;stroke-dashoffset:2911;animation:LJQUeund_draw 6666ms ease 341ms forwards;}.LJQUeund_9{stroke-dasharray:811 813;stroke-dashoffset:812;animation:LJQUeund_draw 6666ms ease 384ms forwards;}.LJQUeund_10{stroke-dasharray:1086 1088;stroke-dashoffset:1087;animation:LJQUeund_draw 6666ms ease 427ms forwards;}.LJQUeund_11{stroke-dasharray:507 509;stroke-dashoffset:508;animation:LJQUeund_draw 6666ms ease 470ms forwards;}.LJQUeund_12{stroke-dasharray:66 68;stroke-dashoffset:67;animation:LJQUeund_draw 6666ms ease 512ms forwards;}.LJQUeund_13{stroke-dasharray:255 257;stroke-dashoffset:256;animation:LJQUeund_draw 6666ms ease 555ms forwards;}.LJQUeund_14{stroke-dasharray:402 404;stroke-dashoffset:403;animation:LJQUeund_draw 6666ms ease 598ms forwards;}.LJQUeund_15{stroke-dasharray:230 232;stroke-dashoffset:231;animation:LJQUeund_draw 6666ms ease 641ms forwards;}.LJQUeund_16{stroke-dasharray:24 26;stroke-dashoffset:25;animation:LJQUeund_draw 6666ms ease 683ms forwards;}.LJQUeund_17{stroke-dasharray:169 171;stroke-dashoffset:170;animation:LJQUeund_draw 6666ms ease 726ms forwards;}.LJQUeund_18{stroke-dasharray:275 277;stroke-dashoffset:276;animation:LJQUeund_draw 6666ms ease 769ms forwards;}.LJQUeund_19{stroke-dasharray:484 486;stroke-dashoffset:485;animation:LJQUeund_draw 6666ms ease 811ms forwards;}.LJQUeund_20{stroke-dasharray:595 597;stroke-dashoffset:596;animation:LJQUeund_draw 6666ms ease 854ms forwards;}.LJQUeund_21{stroke-dasharray:847 849;stroke-dashoffset:848;animation:LJQUeund_draw 6666ms ease 897ms forwards;}.LJQUeund_22{stroke-dasharray:179 181;stroke-dashoffset:180;animation:LJQUeund_draw 6666ms ease 940ms forwards;}.LJQUeund_23{stroke-dasharray:1245 1247;stroke-dashoffset:1246;animation:LJQUeund_draw 6666ms ease 982ms forwards;}.LJQUeund_24{stroke-dasharray:951 953;stroke-dashoffset:952;animation:LJQUeund_draw 6666ms ease 1025ms forwards;}.LJQUeund_25{stroke-dasharray:1235 1237;stroke-dashoffset:1236;animation:LJQUeund_draw 6666ms ease 1068ms forwards;}.LJQUeund_26{stroke-dasharray:203 205;stroke-dashoffset:204;animation:LJQUeund_draw 6666ms ease 1111ms forwards;}.LJQUeund_27{stroke-dasharray:250 252;stroke-dashoffset:251;animation:LJQUeund_draw 6666ms ease 1153ms forwards;}.LJQUeund_28{stroke-dasharray:108 110;stroke-dashoffset:109;animation:LJQUeund_draw 6666ms ease 1196ms forwards;}.LJQUeund_29{stroke-dasharray:238 240;stroke-dashoffset:239;animation:LJQUeund_draw 6666ms ease 1239ms forwards;}.LJQUeund_30{stroke-dasharray:47 49;stroke-dashoffset:48;animation:LJQUeund_draw 6666ms ease 1282ms forwards;}.LJQUeund_31{stroke-dasharray:205 207;stroke-dashoffset:206;animation:LJQUeund_draw 6666ms ease 1324ms forwards;}.LJQUeund_32{stroke-dasharray:175 177;stroke-dashoffset:176;animation:LJQUeund_draw 6666ms ease 1367ms forwards;}.LJQUeund_33{stroke-dasharray:612 614;stroke-dashoffset:613;animation:LJQUeund_draw 6666ms ease 1410ms forwards;}.LJQUeund_34{stroke-dasharray:232 234;stroke-dashoffset:233;animation:LJQUeund_draw 6666ms ease 1452ms forwards;}.LJQUeund_35{stroke-dasharray:125 127;stroke-dashoffset:126;animation:LJQUeund_draw 6666ms ease 1495ms forwards;}.LJQUeund_36{stroke-dasharray:49 51;stroke-dashoffset:50;animation:LJQUeund_draw 6666ms ease 1538ms forwards;}.LJQUeund_37{stroke-dasharray:12 14;stroke-dashoffset:13;animation:LJQUeund_draw 6666ms ease 1581ms forwards;}.LJQUeund_38{stroke-dasharray:115 117;stroke-dashoffset:116;animation:LJQUeund_draw 6666ms ease 1623ms forwards;}.LJQUeund_39{stroke-dasharray:66 68;stroke-dashoffset:67;animation:LJQUeund_draw 6666ms ease 1666ms forwards;}.LJQUeund_40{stroke-dasharray:108 110;stroke-dashoffset:109;animation:LJQUeund_draw 6666ms ease 1709ms forwards;}.LJQUeund_41{stroke-dasharray:74 76;stroke-dashoffset:75;animation:LJQUeund_draw 6666ms ease 1752ms forwards;}.LJQUeund_42{stroke-dasharray:37 39;stroke-dashoffset:38;animation:LJQUeund_draw 6666ms ease 1794ms forwards;}.LJQUeund_43{stroke-dasharray:289 291;stroke-dashoffset:290;animation:LJQUeund_draw 6666ms ease 1837ms forwards;}.LJQUeund_44{stroke-dasharray:49 51;stroke-dashoffset:50;animation:LJQUeund_draw 6666ms ease 1880ms forwards;}.LJQUeund_45{stroke-dasharray:105 107;stroke-dashoffset:106;animation:LJQUeund_draw 6666ms ease 1923ms forwards;}.LJQUeund_46{stroke-dasharray:92 94;stroke-dashoffset:93;animation:LJQUeund_draw 6666ms ease 1965ms forwards;}.LJQUeund_47{stroke-dasharray:111 113;stroke-dashoffset:112;animation:LJQUeund_draw 6666ms ease 2008ms forwards;}.LJQUeund_48{stroke-dasharray:117 119;stroke-dashoffset:118;animation:LJQUeund_draw 6666ms ease 2051ms forwards;}.LJQUeund_49{stroke-dasharray:144 146;stroke-dashoffset:145;animation:LJQUeund_draw 6666ms ease 2094ms forwards;}.LJQUeund_50{stroke-dasharray:205 207;stroke-dashoffset:206;animation:LJQUeund_draw 6666ms ease 2136ms forwards;}.LJQUeund_51{stroke-dasharray:206 208;stroke-dashoffset:207;animation:LJQUeund_draw 6666ms ease 2179ms forwards;}.LJQUeund_52{stroke-dasharray:138 140;stroke-dashoffset:139;animation:LJQUeund_draw 6666ms ease 2222ms forwards;}.LJQUeund_53{stroke-dasharray:103 105;stroke-dashoffset:104;animation:LJQUeund_draw 6666ms ease 2264ms forwards;}.LJQUeund_54{stroke-dasharray:49 51;stroke-dashoffset:50;animation:LJQUeund_draw 6666ms ease 2307ms forwards;}.LJQUeund_55{stroke-dasharray:13 15;stroke-dashoffset:14;animation:LJQUeund_draw 6666ms ease 2350ms forwards;}.LJQUeund_56{stroke-dasharray:125 127;stroke-dashoffset:126;animation:LJQUeund_draw 6666ms ease 2393ms forwards;}.LJQUeund_57{stroke-dasharray:90 92;stroke-dashoffset:91;animation:LJQUeund_draw 6666ms ease 2435ms forwards;}.LJQUeund_58{stroke-dasharray:116 118;stroke-dashoffset:117;animation:LJQUeund_draw 6666ms ease 2478ms forwards;}.LJQUeund_59{stroke-dasharray:191 193;stroke-dashoffset:192;animation:LJQUeund_draw 6666ms ease 2521ms forwards;}.LJQUeund_60{stroke-dasharray:194 196;stroke-dashoffset:195;animation:LJQUeund_draw 6666ms ease 2564ms forwards;}.LJQUeund_61{stroke-dasharray:19 21;stroke-dashoffset:20;animation:LJQUeund_draw 6666ms ease 2606ms forwards;}.LJQUeund_62{stroke-dasharray:245 247;stroke-dashoffset:246;animation:LJQUeund_draw 6666ms ease 2649ms forwards;}.LJQUeund_63{stroke-dasharray:277 279;stroke-dashoffset:278;animation:LJQUeund_draw 6666ms ease 2692ms forwards;}.LJQUeund_64{stroke-dasharray:54 56;stroke-dashoffset:55;animation:LJQUeund_draw 6666ms ease 2735ms forwards;}.LJQUeund_65{stroke-dasharray:145 147;stroke-dashoffset:146;animation:LJQUeund_draw 6666ms ease 2777ms forwards;}.LJQUeund_66{stroke-dasharray:157 159;stroke-dashoffset:158;animation:LJQUeund_draw 6666ms ease 2820ms forwards;}.LJQUeund_67{stroke-dasharray:439 441;stroke-dashoffset:440;animation:LJQUeund_draw 6666ms ease 2863ms forwards;}.LJQUeund_68{stroke-dasharray:67 69;stroke-dashoffset:68;animation:LJQUeund_draw 6666ms ease 2905ms forwards;}.LJQUeund_69{stroke-dasharray:52 54;stroke-dashoffset:53;animation:LJQUeund_draw 6666ms ease 2948ms forwards;}.LJQUeund_70{stroke-dasharray:350 352;stroke-dashoffset:351;animation:LJQUeund_draw 6666ms ease 2991ms forwards;}.LJQUeund_71{stroke-dasharray:68 70;stroke-dashoffset:69;animation:LJQUeund_draw 6666ms ease 3034ms forwards;}.LJQUeund_72{stroke-dasharray:39 41;stroke-dashoffset:40;animation:LJQUeund_draw 6666ms ease 3076ms forwards;}.LJQUeund_73{stroke-dasharray:268 270;stroke-dashoffset:269;animation:LJQUeund_draw 6666ms ease 3119ms forwards;}.LJQUeund_74{stroke-dasharray:217 219;stroke-dashoffset:218;animation:LJQUeund_draw 6666ms ease 3162ms forwards;}.LJQUeund_75{stroke-dasharray:396 398;stroke-dashoffset:397;animation:LJQUeund_draw 6666ms ease 3205ms forwards;}.LJQUeund_76{stroke-dasharray:157 159;stroke-dashoffset:158;animation:LJQUeund_draw 6666ms ease 3247ms forwards;}.LJQUeund_77{stroke-dasharray:51 53;stroke-dashoffset:52;animation:LJQUeund_draw 6666ms ease 3290ms forwards;}.LJQUeund_78{stroke-dasharray:48 50;stroke-dashoffset:49;animation:LJQUeund_draw 6666ms ease 3333ms forwards;}@keyframes LJQUeund_draw{100%{stroke-dashoffset:0;}}@keyframes LJQUeund_fade{0%{stroke-opacity:1;}96.46017699115045%{stroke-opacity:1;}100%{stroke-opacity:0;}}</style></svg>