<svg xmlns="http://www.w3.org/2000/svg" viewBox="0 0 200 150"><defs><style>.cls-1{fill:#2ab673;}.cls-2{fill:#fff;}</style></defs><title>GiftedGeeksPlaceholder</title><g id="Layer_2" data-name="Layer 2"><g id="Layer_1-2" data-name="Layer 1"><rect class="cls-1" width="200" height="150"/><path class="cls-2" d="M36.43,70.51a4.9,4.9,0,0,1,1.4.62h3.58v.47c0,.23-.14.34-.39.37l-2.13.17a4.4,4.4,0,0,1,.62,1.2,4.75,4.75,0,0,1,.19,1.43,4.35,4.35,0,0,1-.36,1.82,3.85,3.85,0,0,1-1,1.4,4.73,4.73,0,0,1-1.57.89,5.65,5.65,0,0,1-2,.31,6.07,6.07,0,0,1-2.19-.33,2.74,2.74,0,0,0-.92.78,1.61,1.61,0,0,0-.34.9,1.11,1.11,0,0,0,.42.92,3,3,0,0,0,1.12.48,8.77,8.77,0,0,0,1.57.17c.59,0,1.21.08,1.82.11s1.21.08,1.79.16a5.67,5.67,0,0,1,1.6.45,3,3,0,0,1,1.12.87,2.54,2.54,0,0,1,.39,1.51,3.5,3.5,0,0,1-.42,1.66,4.3,4.3,0,0,1-1.26,1.42,6.31,6.31,0,0,1-2,1,8.39,8.39,0,0,1-2.63.4,10.3,10.3,0,0,1-2.58-.31,6.24,6.24,0,0,1-1.84-.82,3.27,3.27,0,0,1-1.12-1.17,2.91,2.91,0,0,1-.4-1.46,2.8,2.8,0,0,1,.73-1.9,4.71,4.71,0,0,1,2-1.23,2.68,2.68,0,0,1-1.12-.67,1.73,1.73,0,0,1-.39-1.24,1.55,1.55,0,0,1,.11-.61,3.32,3.32,0,0,1,.33-.65,2.44,2.44,0,0,1,.54-.58,3.12,3.12,0,0,1,.72-.51A4.07,4.07,0,0,1,30.32,77a4.42,4.42,0,0,1-.56-2.21,4.84,4.84,0,0,1,.37-1.85,3.53,3.53,0,0,1,1-1.4,4.68,4.68,0,0,1,1.56-.89,5.8,5.8,0,0,1,2-.34A6.32,6.32,0,0,1,36.43,70.51Zm3.13,13.83a1.94,1.94,0,0,0-.89-.61,6,6,0,0,0-1.35-.34c-.5,0-1-.08-1.56-.11l-1.63-.08A13.68,13.68,0,0,1,32.59,83a10.55,10.55,0,0,0-1,.47,3.54,3.54,0,0,0-.75.62,2.26,2.26,0,0,0-.51.76,2.36,2.36,0,0,0-.19.89,2,2,0,0,0,.31,1.15,3,3,0,0,0,.92.9,5,5,0,0,0,1.51.61,8.7,8.7,0,0,0,2,.23,7.54,7.54,0,0,0,2-.23,6.09,6.09,0,0,0,1.59-.67,3.61,3.61,0,0,0,1.07-1.06,2.38,2.38,0,0,0,.39-1.29A1.63,1.63,0,0,0,39.56,84.34ZM36.34,78a3,3,0,0,0,1.18-.72,3.31,3.31,0,0,0,.73-1.1,4.27,4.27,0,0,0,0-2.88,2.72,2.72,0,0,0-.76-1.09,3.61,3.61,0,0,0-1.17-.73,4.46,4.46,0,0,0-1.57-.25,4.58,4.58,0,0,0-1.57.25,3.36,3.36,0,0,0-1.2.73,2.66,2.66,0,0,0-.73,1.09A4,4,0,0,0,31,74.8a3.74,3.74,0,0,0,.25,1.42,2.91,2.91,0,0,0,.73,1.1,3.21,3.21,0,0,0,1.2.72,4.57,4.57,0,0,0,1.57.26A4.65,4.65,0,0,0,36.34,78Z"/><path class="cls-2" d="M49.31,83.9v.56H43.93V83.9c0-.31.2-.48.56-.51h.65c.22,0,.5,0,.81,0V71.63c-.25,0-.48,0-.67,0h-.42l-.23,0h-.14c-.36,0-.56-.2-.56-.51v-.56h3.36V83.34c.25,0,.48,0,.67,0l.42,0h.37C49.11,83.42,49.31,83.59,49.31,83.9ZM45.5,66.2a1.08,1.08,0,0,1,0-1,1.24,1.24,0,0,1,.25-.39,1.17,1.17,0,0,1,.39-.28,1.32,1.32,0,0,1,1,0,1.17,1.17,0,0,1,.39.28,1.33,1.33,0,0,1,.28.39,1.68,1.68,0,0,1,.11.47,1.47,1.47,0,0,1-.11.48,1.33,1.33,0,0,1-.28.39,1,1,0,0,1-.39.25,1,1,0,0,1-1,0,1,1,0,0,1-.39-.25A1.24,1.24,0,0,1,45.5,66.2Z"/><path class="cls-2" d="M55.36,69.25V71h4.5v1H55.38V83.34c.34,0,.65,0,.93,0l.61,0h.26c.36,0,.56.2.56.51v.56h-6V83.9c0-.31.2-.48.56-.51h.26l.61,0c.28,0,.56,0,.9,0V72l-2-.14c-.28,0-.39-.11-.39-.34V71h2.38V69.2a6.59,6.59,0,0,1,.31-2.1,4,4,0,0,1,.86-1.49,3.53,3.53,0,0,1,1.35-.92,4.8,4.8,0,0,1,1.73-.28,3.76,3.76,0,0,1,1.66.28l0,.64c0,.14-.11.2-.28.2a2.77,2.77,0,0,1-.45,0,5,5,0,0,0-.73,0,3.7,3.7,0,0,0-1.26.19,2.46,2.46,0,0,0-1,.67,3.34,3.34,0,0,0-.64,1.15A5.54,5.54,0,0,0,55.36,69.25Z"/><path class="cls-2" d="M64.76,83.9A3.25,3.25,0,0,1,64,81.49V72H62a.48.48,0,0,1-.28-.11.3.3,0,0,1-.08-.23v-.5L64,71l.33-5a.35.35,0,0,1,.12-.23.29.29,0,0,1,.22-.11h.64V71h4.4v1h-4.4v9.44a2.55,2.55,0,0,0,.14,1,2,2,0,0,0,.42.68,1.79,1.79,0,0,0,.59.39,2.45,2.45,0,0,0,.78.14,2,2,0,0,0,.84-.14,4.28,4.28,0,0,0,.65-.34,2.08,2.08,0,0,0,.42-.31.4.4,0,0,1,.28-.13.26.26,0,0,1,.22.11l.37.61a3.92,3.92,0,0,1-1.35.93,4.63,4.63,0,0,1-1.7.36A3,3,0,0,1,64.76,83.9Z"/><path class="cls-2" d="M80.64,70.71a5.13,5.13,0,0,1,1.74,1.17,5.39,5.39,0,0,1,1.14,1.94,7.42,7.42,0,0,1,.42,2.6.71.71,0,0,1-.11.42c0,.08-.14.11-.28.11h-10v.26A9.35,9.35,0,0,0,73.86,80a5.9,5.9,0,0,0,1,2,4.29,4.29,0,0,0,1.62,1.21,5.29,5.29,0,0,0,2.13.42,6.06,6.06,0,0,0,1.82-.25,7.37,7.37,0,0,0,1.29-.51,4.76,4.76,0,0,0,.84-.53.74.74,0,0,1,.45-.22.34.34,0,0,1,.28.14l.36.45a3.92,3.92,0,0,1-.9.78,5.67,5.67,0,0,1-1.23.62,13.79,13.79,0,0,1-1.45.42,7.46,7.46,0,0,1-1.57.14,6.52,6.52,0,0,1-2.61-.48,5.48,5.48,0,0,1-2-1.46,6.68,6.68,0,0,1-1.29-2.32,10,10,0,0,1-.47-3.16,8.76,8.76,0,0,1,.44-2.78,6.47,6.47,0,0,1,1.23-2.18,5.41,5.41,0,0,1,2-1.43,6.69,6.69,0,0,1,2.67-.53A5.61,5.61,0,0,1,80.64,70.71Zm-4.09.92a4.58,4.58,0,0,0-1.48,1,4.75,4.75,0,0,0-1,1.52,7.37,7.37,0,0,0-.51,2h9.19a6.24,6.24,0,0,0-.31-2,4.16,4.16,0,0,0-.87-1.49,3.71,3.71,0,0,0-1.34-1,4.42,4.42,0,0,0-1.74-.33A5.24,5.24,0,0,0,76.55,71.63Z"/><path class="cls-2" d="M99.59,84v.42H97a.37.37,0,0,1-.39-.37l-.14-2.21a7.52,7.52,0,0,1-2.16,2,5.32,5.32,0,0,1-2.8.73,4.85,4.85,0,0,1-4-1.77,8.44,8.44,0,0,1-1.43-5.35,9.22,9.22,0,0,1,.39-2.83,6.91,6.91,0,0,1,1.18-2.29,5.67,5.67,0,0,1,1.9-1.54,5.89,5.89,0,0,1,2.61-.56,5.28,5.28,0,0,1,2.46.53,4.87,4.87,0,0,1,1.79,1.51V65.19l-.67,0h-.45c-.08,0-.14,0-.19,0H95c-.37,0-.56-.2-.56-.51v-.56h3.33v19.3h.61l.4,0h.33c.37,0,.53.2.53.51ZM96.4,73.51a5,5,0,0,0-1.79-1.68,4.7,4.7,0,0,0-2.21-.5,4.8,4.8,0,0,0-2.16.44,4.68,4.68,0,0,0-1.54,1.29,5.69,5.69,0,0,0-1,2,8.85,8.85,0,0,0-.31,2.49,7.53,7.53,0,0,0,1.15,4.6,4,4,0,0,0,3.31,1.45,4.53,4.53,0,0,0,2.49-.73,7,7,0,0,0,2-2Z"/><path class="cls-2" d="M109.12,70a5,5,0,0,1,1.48.56h4.11v1.28a.69.69,0,0,1-.16.51,1.13,1.13,0,0,1-.56.25l-1.29.23a5.93,5.93,0,0,1,.19.78,3.8,3.8,0,0,1,.09.84,4.34,4.34,0,0,1-.42,1.93,4.26,4.26,0,0,1-1.18,1.46,5.94,5.94,0,0,1-1.79.92,6.74,6.74,0,0,1-2.21.34,7.74,7.74,0,0,1-1.6-.14c-.45.28-.67.56-.67.89a.67.67,0,0,0,.39.65,3.38,3.38,0,0,0,1.07.28,12.46,12.46,0,0,0,1.48.11c.56,0,1.09,0,1.68.08s1.15.14,1.71.25a4.67,4.67,0,0,1,1.45.57,2.78,2.78,0,0,1,1.07,1,3.12,3.12,0,0,1,.39,1.68,4,4,0,0,1-.47,1.85,5.17,5.17,0,0,1-1.35,1.6,6.89,6.89,0,0,1-2.18,1.12,9.57,9.57,0,0,1-2.94.42,11.08,11.08,0,0,1-2.86-.31,7.73,7.73,0,0,1-2-.84,3.44,3.44,0,0,1-1.17-1.21,2.76,2.76,0,0,1-.39-1.42,2.41,2.41,0,0,1,.61-1.71A4.31,4.31,0,0,1,103.32,83a2.28,2.28,0,0,1-.84-.79,2.19,2.19,0,0,1-.34-1.29,2,2,0,0,1,.11-.67,2.65,2.65,0,0,1,.34-.67,4.5,4.5,0,0,1,.59-.65,5.06,5.06,0,0,1,.84-.53,4.7,4.7,0,0,1-1.74-1.56,4.16,4.16,0,0,1-.61-2.3,4.12,4.12,0,0,1,1.62-3.39,5.6,5.6,0,0,1,1.79-.92,7.44,7.44,0,0,1,2.3-.34A8,8,0,0,1,109.12,70Zm1.79,14.39a2,2,0,0,0-.67-.42,4.62,4.62,0,0,0-1-.22c-.39-.06-.78-.09-1.23-.12s-.9,0-1.35,0-.89-.06-1.31-.12a3.41,3.41,0,0,0-1,.76,1.46,1.46,0,0,0-.17,1.71,1.51,1.51,0,0,0,.59.59,3.31,3.31,0,0,0,1.09.36,8.77,8.77,0,0,0,1.59.14,7.43,7.43,0,0,0,1.68-.17,4.4,4.4,0,0,0,1.15-.39,1.76,1.76,0,0,0,.67-.62,1.46,1.46,0,0,0,.2-.78A.9.9,0,0,0,110.91,84.43Zm-2.41-7.67a2.15,2.15,0,0,0,.78-.48,1.9,1.9,0,0,0,.48-.76,2.59,2.59,0,0,0,.17-1,2.28,2.28,0,0,0-.65-1.68,2.59,2.59,0,0,0-1.9-.61,2.67,2.67,0,0,0-1.93.61,2.26,2.26,0,0,0-.62,1.68,2.6,2.6,0,0,0,.14,1,1.93,1.93,0,0,0,.48.73,2,2,0,0,0,.81.51,3.52,3.52,0,0,0,1.12.16A3.44,3.44,0,0,0,108.5,76.76Z"/><path class="cls-2" d="M125,70.29a5.4,5.4,0,0,1,2,1.29,5.69,5.69,0,0,1,1.29,2,7.58,7.58,0,0,1,.48,2.75,4.05,4.05,0,0,1-.06.67,1.07,1.07,0,0,1-.11.39.49.49,0,0,1-.25.22.8.8,0,0,1-.39.06H119A5,5,0,0,0,120.2,81,3.68,3.68,0,0,0,123,82a4.35,4.35,0,0,0,1.43-.19,6.62,6.62,0,0,0,1.06-.45c.31-.17.59-.28.81-.42a1.14,1.14,0,0,1,.64-.2.87.87,0,0,1,.4.09.58.58,0,0,1,.25.22l1,1.26a6.23,6.23,0,0,1-2.78,1.88,11.37,11.37,0,0,1-1.59.36,9.43,9.43,0,0,1-1.57.11,7.61,7.61,0,0,1-2.77-.47,6.33,6.33,0,0,1-2.24-1.49,6.73,6.73,0,0,1-1.51-2.4,9.29,9.29,0,0,1-.54-3.34,8,8,0,0,1,.48-2.74,6.6,6.6,0,0,1,1.37-2.27,6.28,6.28,0,0,1,2.16-1.51,7.3,7.3,0,0,1,2.91-.56A7.11,7.11,0,0,1,125,70.29Zm-4.79,2.91a4.3,4.3,0,0,0-1.09,2.41h6.5a4.26,4.26,0,0,0-.2-1.26,2.77,2.77,0,0,0-.56-1,2.41,2.41,0,0,0-.95-.7,3.52,3.52,0,0,0-1.34-.28A3.21,3.21,0,0,0,120.17,73.2Z"/><path class="cls-2" d="M139.55,70.29a5.4,5.4,0,0,1,2,1.29,5.69,5.69,0,0,1,1.29,2,7.58,7.58,0,0,1,.47,2.75,4.17,4.17,0,0,1-.05.67,1.32,1.32,0,0,1-.11.39.47.47,0,0,1-.26.22.76.76,0,0,1-.39.06h-8.87a5,5,0,0,0,1.2,3.25,3.67,3.67,0,0,0,2.74,1A4.31,4.31,0,0,0,139,81.8a6.38,6.38,0,0,0,1.07-.45c.3-.17.58-.28.81-.42a1.14,1.14,0,0,1,.64-.2.9.9,0,0,1,.4.09.64.64,0,0,1,.25.22l1,1.26a6.29,6.29,0,0,1-1.28,1.15,6.63,6.63,0,0,1-1.49.73,11.37,11.37,0,0,1-1.59.36,9.5,9.5,0,0,1-1.57.11,7.57,7.57,0,0,1-2.77-.47,6.33,6.33,0,0,1-2.24-1.49,6.75,6.75,0,0,1-1.52-2.4,9.52,9.52,0,0,1-.53-3.34,8,8,0,0,1,.48-2.74A6.6,6.6,0,0,1,132,71.94a6.28,6.28,0,0,1,2.16-1.51,7.3,7.3,0,0,1,2.91-.56A7.15,7.15,0,0,1,139.55,70.29Zm-4.79,2.91a4.3,4.3,0,0,0-1.09,2.41h6.5a4.62,4.62,0,0,0-.2-1.26,2.92,2.92,0,0,0-.56-1,2.41,2.41,0,0,0-.95-.7,3.53,3.53,0,0,0-1.35-.28A3.2,3.2,0,0,0,134.76,73.2Z"/><path class="cls-2" d="M160.16,82.8v1.66h-3.67a1.81,1.81,0,0,1-.7-.14,1.15,1.15,0,0,1-.5-.48l-3.64-5.46a1,1,0,0,0-.42-.42,2.11,2.11,0,0,0-.65-.08h-.78v3.8l.84.15a2.08,2.08,0,0,1,.42.08,1.09,1.09,0,0,1,.17,0,.8.8,0,0,1,.7.86v1.66h-7.7V82.8a.8.8,0,0,1,.7-.86.74.74,0,0,1,.16,0c.09,0,.23-.06.42-.08l.84-.15V66.42c-.33,0-.64-.11-.84-.13s-.33-.09-.42-.09a.74.74,0,0,1-.16,0,.8.8,0,0,1-.7-.87V63.65h5.57v11.9h.64a1.71,1.71,0,0,0,.56-.08,1.27,1.27,0,0,0,.42-.37l2-2.43-.25-.06a.8.8,0,0,1-.7-.86V70.09h3.44v0a1,1,0,0,1,.28,0h3.08v1.66a.8.8,0,0,1-.7.86.73.73,0,0,0-.22,0,3.48,3.48,0,0,1-.56.08c-.25,0-.48.09-.76.12l-2.13,2.57a6.85,6.85,0,0,1-.5.56,2.57,2.57,0,0,1-.53.42,2.07,2.07,0,0,1,.5.48c.14.19.31.39.45.61l2.88,4.2c.31.06.62.12.9.15a4.59,4.59,0,0,1,.59,0,1.42,1.42,0,0,0,.28.06A.8.8,0,0,1,160.16,82.8Z"/><path class="cls-2" d="M171.55,79.89a4.94,4.94,0,0,1-.39,1.94,4.18,4.18,0,0,1-1.09,1.51,4.88,4.88,0,0,1-1.79,1,7.43,7.43,0,0,1-2.47.36,13.9,13.9,0,0,1-4.56-.78V79.84h1.62a.61.61,0,0,1,.65.53c0,.14.08.53.19,1.65a8.13,8.13,0,0,0,2.27.23,4,4,0,0,0,1.07-.14,2.34,2.34,0,0,0,.72-.4,1.18,1.18,0,0,0,.42-.53,1.76,1.76,0,0,0,.12-.67,1.16,1.16,0,0,0-.28-.81,2.42,2.42,0,0,0-.82-.56,5.44,5.44,0,0,0-1.12-.42l-1.31-.42a9.75,9.75,0,0,1-1.29-.54,4.38,4.38,0,0,1-1.15-.75,3.22,3.22,0,0,1-.78-1.12,4,4,0,0,1-.31-1.63,4.24,4.24,0,0,1,.34-1.68,3.89,3.89,0,0,1,1-1.4,5.21,5.21,0,0,1,1.71-1,7.34,7.34,0,0,1,2.32-.36,12,12,0,0,1,4.2.76h0v4.05h-1.6a.61.61,0,0,1-.64-.53,15.77,15.77,0,0,1-.2-1.57,6.7,6.7,0,0,0-1.68-.19,2.73,2.73,0,0,0-1.6.42,1.34,1.34,0,0,0-.58,1.15,1.17,1.17,0,0,0,.3.78,2.53,2.53,0,0,0,.79.53,5.45,5.45,0,0,0,1.12.45c.42.11.84.25,1.29.39a12.37,12.37,0,0,1,1.31.53,4.24,4.24,0,0,1,1.12.73,2.93,2.93,0,0,1,.79,1A3.48,3.48,0,0,1,171.55,79.89Z"/></g></g></svg>