<svg xmlns="http://www.w3.org/2000/svg" viewBox="0 0 200 150"><defs><style>.cls-1{fill:#00aeef;}.cls-2{fill:#fff;}.cls-3{fill:#1e1e1e;}</style></defs><title>KryptoSignerPlaceHolder</title><g id="Layer_2" data-name="Layer 2"><g id="Layer_1-2" data-name="Layer 1"><rect class="cls-1" width="200" height="150"/><path class="cls-2" d="M31.89,70.18l-.2,1.65a1,1,0,0,1-.81.87.91.91,0,0,0-.25,0l-.53.08-.81.11L26.85,75.5c-.2.19-.36.39-.56.56a3,3,0,0,1-.59.42,2.52,2.52,0,0,1,.45.47,4.33,4.33,0,0,1,.39.62l2.35,4.2c.31.06.59.11.87.14s.48,0,.59,0a1.42,1.42,0,0,0,.28.06.71.71,0,0,1,.59.87L31,84.54H27.33a1.33,1.33,0,0,1-.65-.14,1.06,1.06,0,0,1-.45-.48l-3-5.46a.82.82,0,0,0-.37-.42,1.83,1.83,0,0,0-.61-.08h-.79l-.11,1h0l-.67,5.63H17.19L18,78.35l1.46-11.84-.81-.14-.42-.08a.89.89,0,0,1-.17,0,.71.71,0,0,1-.59-.87l.2-1.65h5.57l-1.46,11.9h.65a1.49,1.49,0,0,0,.56-.09,1.47,1.47,0,0,0,.45-.36l2.29-2.44c-.14,0-.19,0-.22,0a.71.71,0,0,1-.59-.87l.2-1.65h3.44l0,0a1.2,1.2,0,0,1,.31,0h3.08Z"/><path class="cls-2" d="M44.43,70.4,43.68,73a.55.55,0,0,1-.25.34.58.58,0,0,1-.39.11,2.27,2.27,0,0,1-.57-.08,3.74,3.74,0,0,0-.95-.11,3.13,3.13,0,0,0-1.9.59,5.44,5.44,0,0,0-1.51,1.76l-.62,5-.5,4H33.54l.34-2.77.2-1.65.13-1L35,73l-1.4-.25a.71.71,0,0,1-.59-.87l.2-1.65h4.14c.37,0,.62,0,.73.19a1.09,1.09,0,0,1,.2.67v1.74a7.81,7.81,0,0,1,2.07-2.1,4.26,4.26,0,0,1,2.41-.75A2.7,2.7,0,0,1,44.43,70.4Z"/><path class="cls-2" d="M62.08,70.18l-.2,1.65a1,1,0,0,1-.81.87c-.23,0-.14,0-1.35.25L51.15,88.49a1.59,1.59,0,0,1-.47.56,1.18,1.18,0,0,1-.76.17H47.35l3.38-5.74L47.43,73c-1.15-.2-1.06-.22-1.29-.25a.72.72,0,0,1-.61-.87l.22-1.65h7l-.19,1.65a1,1,0,0,1-.82.87l-.67.11,1.6,5.46c.08.25.11.5.17.76s0,.53.08.78c.11-.28.25-.53.36-.78s.23-.51.37-.76l2.77-5.4c-.7-.14-.76-.14-.92-.17a.71.71,0,0,1-.59-.87l.2-1.65h7Z"/><path class="cls-2" d="M78.73,77.23a11.63,11.63,0,0,1-.81,3,8.13,8.13,0,0,1-1.51,2.38,7,7,0,0,1-2.16,1.57,6,6,0,0,1-2.63.56,4.57,4.57,0,0,1-2-.37,4.1,4.1,0,0,1-1.38-1l-.39,3.11c.34,0,.62.13.81.16a3.21,3.21,0,0,1,.4.06.44.44,0,0,0,.16,0,.75.75,0,0,1,.62.89l-.22,1.63H61.93l.2-1.63a1,1,0,0,1,.81-.89,1.09,1.09,0,0,1,.17,0c.08,0,.22,0,.42-.06s.48-.11.84-.16L66.05,73l-.81-.14c-.2,0-.34-.08-.42-.08a.89.89,0,0,1-.17,0,.71.71,0,0,1-.59-.87l.2-1.65h4.23a.85.85,0,0,1,.56.17.66.66,0,0,1,.25.47l.11,1.32a8.53,8.53,0,0,1,2.21-1.6,5.67,5.67,0,0,1,2.69-.61,4.39,4.39,0,0,1,2.1.47,4.06,4.06,0,0,1,1.51,1.43,6.07,6.07,0,0,1,.81,2.3A10.7,10.7,0,0,1,78.73,77.23Zm-3.58,0a10,10,0,0,0,.06-2.15,3.58,3.58,0,0,0-.4-1.4,1.84,1.84,0,0,0-.81-.82,2.79,2.79,0,0,0-1.2-.25,3.85,3.85,0,0,0-1.91.45,6.47,6.47,0,0,0-1.56,1.29l-.79,6.44a2.88,2.88,0,0,0,1.15,1,3.68,3.68,0,0,0,2.91,0,3.41,3.41,0,0,0,1.18-.9,5.17,5.17,0,0,0,.87-1.51A10.44,10.44,0,0,0,75.15,77.26Z"/><path class="cls-2" d="M81.7,83.7A3.71,3.71,0,0,1,81,80.79l1-8H80.58a.64.64,0,0,1-.47-.2.57.57,0,0,1-.14-.53l.16-1.4,2.36-.36,1.23-3.92A.74.74,0,0,1,84,66a.86.86,0,0,1,.53-.17h1.79l-.56,4.54h3.78l-.31,2.46H85.48l-1,7.79a1.3,1.3,0,0,0,.2,1,1,1,0,0,0,.86.36,1.68,1.68,0,0,0,.54,0c.14-.06.3-.11.42-.17l.28-.17a.54.54,0,0,1,.28,0c.11,0,.16,0,.22,0a.78.78,0,0,1,.2.23l.84,1.68a6.53,6.53,0,0,1-1.88,1,6.45,6.45,0,0,1-2,.33A3.41,3.41,0,0,1,81.7,83.7Z"/><path class="cls-2" d="M101,70.49a4.91,4.91,0,0,1,2,1.45,5.73,5.73,0,0,1,1.15,2.33,8.48,8.48,0,0,1,.14,3,9.69,9.69,0,0,1-.9,3.08,7.74,7.74,0,0,1-1.71,2.35,7.06,7.06,0,0,1-2.4,1.48,8.71,8.71,0,0,1-3,.51,7.59,7.59,0,0,1-2.86-.51,5.07,5.07,0,0,1-2.07-1.48,5.88,5.88,0,0,1-1.15-2.35,8.63,8.63,0,0,1-.14-3.08,9.58,9.58,0,0,1,.9-3,7.61,7.61,0,0,1,1.74-2.33,7,7,0,0,1,2.4-1.45,8.72,8.72,0,0,1,3-.54A7.59,7.59,0,0,1,101,70.49ZM99.43,80.87a6.77,6.77,0,0,0,1.28-3.53,5.55,5.55,0,0,0-.42-3.52,2.61,2.61,0,0,0-2.49-1.24A3.52,3.52,0,0,0,95,73.82a6.76,6.76,0,0,0-1.29,3.55,5.48,5.48,0,0,0,.42,3.5,2.71,2.71,0,0,0,2.55,1.21A3.44,3.44,0,0,0,99.43,80.87Z"/><path class="cls-3" d="M115.81,80a5.09,5.09,0,0,1-.62,1.93,5.21,5.21,0,0,1-1.29,1.51,5.57,5.57,0,0,1-1.93,1,7.85,7.85,0,0,1-2.49.36A12.89,12.89,0,0,1,105,84l.16-1.4.31-2.66h1.63a.52.52,0,0,1,.58.53c0,.14,0,.54,0,1.66a8.13,8.13,0,0,0,2.24.22,4.31,4.31,0,0,0,1.09-.14,2.78,2.78,0,0,0,.75-.39,1.45,1.45,0,0,0,.51-.54,1.83,1.83,0,0,0,.19-.67,1.09,1.09,0,0,0-.19-.81,2.27,2.27,0,0,0-.73-.56,4.51,4.51,0,0,0-1.06-.42l-1.26-.42a10.36,10.36,0,0,1-1.23-.53,3.49,3.49,0,0,1-1-.76,2.91,2.91,0,0,1-.67-1.12,3.77,3.77,0,0,1-.12-1.62,4.83,4.83,0,0,1,.56-1.68,4.74,4.74,0,0,1,1.21-1.4,5.81,5.81,0,0,1,1.82-1,7.52,7.52,0,0,1,2.38-.37,10.83,10.83,0,0,1,4.09.76l-.51,4.06H114.1a.53.53,0,0,1-.59-.53c0-.14,0-.48,0-1.57a6.26,6.26,0,0,0-1.65-.2,3,3,0,0,0-1.66.42,1.56,1.56,0,0,0-.72,1.15,1.12,1.12,0,0,0,.19.79,2.22,2.22,0,0,0,.73.53,5,5,0,0,0,1.07.44l1.25.4a8.69,8.69,0,0,1,1.21.53,3.76,3.76,0,0,1,1,.73,2.43,2.43,0,0,1,.67,1A3.2,3.2,0,0,1,115.81,80Z"/><path class="cls-3" d="M123.79,82.89l-.2,1.65H118l.36-2.77L119.42,73l-.81-.14-.4-.08a.74.74,0,0,1-.16,0,.73.73,0,0,1-.62-.87l.22-1.65h5.58L121.8,81.77l.81.14A2.09,2.09,0,0,1,123,82a.59.59,0,0,0,.2,0A.71.71,0,0,1,123.79,82.89Zm.19-16A3.09,3.09,0,0,1,122.64,68a2.29,2.29,0,0,1-.9.17,1.78,1.78,0,0,1-.81-.17,1.81,1.81,0,0,1-.64-.47,1.72,1.72,0,0,1-.45-1.52,2.64,2.64,0,0,1,.28-.89,2,2,0,0,1,.56-.67,2.37,2.37,0,0,1,.73-.48,2.34,2.34,0,0,1,.86-.19,2.22,2.22,0,0,1,.87.19,1.84,1.84,0,0,1,.65.48,1.91,1.91,0,0,1,.39.67,2.41,2.41,0,0,1,.08.89A2.24,2.24,0,0,1,124,66.85Z"/><path class="cls-3" d="M138.15,75.47a4.37,4.37,0,0,1-.34.92,9.48,9.48,0,0,1-.44.84c-.17.26-.31.53-.45.79a4.76,4.76,0,0,0-.34.84,3.39,3.39,0,0,0-.14,1,2.27,2.27,0,0,0,.25,1.06c.17.34.31.65.51,1a11.28,11.28,0,0,1,.53,1.1,3.19,3.19,0,0,1,.22,1.31,4.69,4.69,0,0,1-.47,2A5,5,0,0,1,136.11,88a6.84,6.84,0,0,1-2.19,1.12,9.68,9.68,0,0,1-2.91.42,10,10,0,0,1-2.38-.26,5.87,5.87,0,0,1-1.79-.78,3.41,3.41,0,0,1-1.15-1.15,2.92,2.92,0,0,1-.39-1.46,3.3,3.3,0,0,1,.59-2,4.36,4.36,0,0,1,1.54-1.29,7.68,7.68,0,0,1,2.15-.73,13.44,13.44,0,0,1,2.35-.22c.4,0,.76,0,1.12.05s.7.09,1,.15c0-.15-.06-.31-.08-.45a2.33,2.33,0,0,1-.06-.48,4.18,4.18,0,0,1,.45-1.79,4.47,4.47,0,0,1-1.21.56,5.43,5.43,0,0,1-1.62.2,4.68,4.68,0,0,1-1.54-.29,3.18,3.18,0,0,1-1.29-.81,4.13,4.13,0,0,1-.89-1.34,5.08,5.08,0,0,1-.31-1.93,5.83,5.83,0,0,1,.36-2,5.26,5.26,0,0,1,1.18-1.79A5.44,5.44,0,0,1,131,70.4a6.9,6.9,0,0,1,2.63-.47,5.37,5.37,0,0,1,1.52.19,4.2,4.2,0,0,1,1.31.53h4l-.16,1.12a1.38,1.38,0,0,1-.2.59.8.8,0,0,1-.48.31l-1.48.39a4.08,4.08,0,0,1,.11.59,4.86,4.86,0,0,1,0,.67A5,5,0,0,1,138.15,75.47Zm-3.36,8.71c0-.14,0-.26-.06-.37a12.59,12.59,0,0,0-1.37-.16c-.42,0-.84-.06-1.2-.06a7,7,0,0,0-1.63.14,4.24,4.24,0,0,0-1.12.42,1.68,1.68,0,0,0-.64.59,1.26,1.26,0,0,0-.22.7,1.4,1.4,0,0,0,.67,1.28,4,4,0,0,0,2.07.42,4.54,4.54,0,0,0,1.43-.19,4.3,4.3,0,0,0,1.12-.53,2.75,2.75,0,0,0,.73-.84,2.19,2.19,0,0,0,.25-1C134.82,84.43,134.79,84.32,134.79,84.18Zm-1.12-6.69a2.93,2.93,0,0,0,.81-.76,3.35,3.35,0,0,0,.48-1.09,4.42,4.42,0,0,0,.17-1.21,2.23,2.23,0,0,0-.48-1.59,1.84,1.84,0,0,0-1.43-.56,2.1,2.1,0,0,0-1.9,1,3.2,3.2,0,0,0-.48,1.06,4.42,4.42,0,0,0-.17,1.21,2.69,2.69,0,0,0,.48,1.68,1.77,1.77,0,0,0,1.43.55A2,2,0,0,0,133.67,77.49Z"/><path class="cls-3" d="M157,82.89l-.2,1.65h-5.6l1.12-9.13a2.87,2.87,0,0,0-.34-2,2,2,0,0,0-1.73-.73,3.88,3.88,0,0,0-1.74.42,7.31,7.31,0,0,0-1.62,1.09l-.56,4.57-.09.67-.28,2.38-.36,2.77h-3.44l.5-4.17.92-7.42-.81-.14c-.19,0-.33-.08-.42-.08a.45.45,0,0,0-.17,0,.71.71,0,0,1-.58-.87l.19-1.65H146a.74.74,0,0,1,.81.64l.11,1.12a9.43,9.43,0,0,1,1-.81,6.61,6.61,0,0,1,1.09-.62,7.54,7.54,0,0,1,1.21-.42,7.39,7.39,0,0,1,1.37-.14,4.65,4.65,0,0,1,2,.4A3.44,3.44,0,0,1,155,71.46a4.78,4.78,0,0,1,.7,1.74,6.47,6.47,0,0,1,0,2.21L155,81.77l.81.14a2.09,2.09,0,0,1,.39.08.62.62,0,0,0,.2,0A.71.71,0,0,1,157,82.89Z"/><path class="cls-3" d="M169.85,75.27a3.53,3.53,0,0,1-1.38,1.43,9.9,9.9,0,0,1-2.68,1.09,26.2,26.2,0,0,1-4.34.73v.17c0,2.27,1,3.39,2.85,3.39a4.68,4.68,0,0,0,1.93-.4,4.66,4.66,0,0,0,.65-.39c.19-.14.36-.25.53-.36s.31-.22.48-.31a1.14,1.14,0,0,1,.53-.11.8.8,0,0,1,.33.08.7.7,0,0,1,.28.23l.87,1.06a16.25,16.25,0,0,1-1.45,1.29,8.11,8.11,0,0,1-1.46.9,7.38,7.38,0,0,1-1.57.5,9.22,9.22,0,0,1-1.79.17,6,6,0,0,1-2.3-.42,4.6,4.6,0,0,1-1.73-1.21,5.16,5.16,0,0,1-1.12-1.87,7.65,7.65,0,0,1-.42-2.47,9.66,9.66,0,0,1,.25-2.21,9.89,9.89,0,0,1,.7-2.07,9.4,9.4,0,0,1,1.15-1.79,7.24,7.24,0,0,1,3.39-2.38A6.51,6.51,0,0,1,165.7,70a5.25,5.25,0,0,1,2,.34,4.57,4.57,0,0,1,1.43.81,3.31,3.31,0,0,1,.84,1.15,3,3,0,0,1,.28,1.23A4.09,4.09,0,0,1,169.85,75.27Zm-5.63-2.6a3.92,3.92,0,0,0-1.09.81,4.32,4.32,0,0,0-.84,1.23,8.62,8.62,0,0,0-.56,1.6,26.35,26.35,0,0,0,2.8-.53,7.66,7.66,0,0,0,1.62-.62,1.76,1.76,0,0,0,.78-.7,1.62,1.62,0,0,0,.17-.81,1.42,1.42,0,0,0-.08-.45,1.33,1.33,0,0,0-.28-.39,1.89,1.89,0,0,0-.48-.31,2.08,2.08,0,0,0-.75-.11A2.75,2.75,0,0,0,164.22,72.67Z"/><path class="cls-3" d="M182.78,70.4,182,73a.51.51,0,0,1-.25.34.55.55,0,0,1-.39.11,2.2,2.2,0,0,1-.56-.08,3.8,3.8,0,0,0-.95-.11,3.16,3.16,0,0,0-1.91.59,5.56,5.56,0,0,0-1.51,1.76l-.61,5-.51,4h-3.44l.33-2.77.2-1.65.14-1,.76-6.19-1.4-.25a.71.71,0,0,1-.59-.87l.19-1.65h4.15a1,1,0,0,1,.73.19,1.09,1.09,0,0,1,.19.67v1.74a8.12,8.12,0,0,1,2.07-2.1,4.26,4.26,0,0,1,2.41-.75A2.73,2.73,0,0,1,182.78,70.4Z"/></g></g></svg>