<svg xmlns="http://www.w3.org/2000/svg" viewBox="0 0 543.42 411.62"><defs><style>.cls-1{fill:#282561;}</style></defs><title>LogoIconViolet4x</title><g id="Layer_2" data-name="Layer 2"><g id="Layer_1-2" data-name="Layer 1"><polygon class="cls-1" points="200.41 0 252.39 0 74.24 365.48 161.98 365.48 142.68 411.63 0 411.63 200.41 0"/><polygon class="cls-1" points="131.79 329.45 181.15 329.45 316.97 49.49 472.11 365.48 381.53 365.48 400.8 411.63 543.41 411.63 343.05 0 290.9 0 131.79 329.45"/><polygon class="cls-1" points="222.19 329.45 411.75 329.45 316.97 137.32 290.9 186.81 340.39 285.37 244.41 285.42 222.19 329.45"/><path class="cls-1" d="M198.66,392.1a8.65,8.65,0,0,1-1.32,4.32,7.92,7.92,0,0,1-3.39,2.9,11.44,11.44,0,0,1-5,1,9.18,9.18,0,0,1-7.27-3q-2.66-3-2.66-8.49v-1.16a14.15,14.15,0,0,1,1.2-6,9.11,9.11,0,0,1,3.45-4,9.61,9.61,0,0,1,5.21-1.41,10.06,10.06,0,0,1,6.85,2.25,8.85,8.85,0,0,1,3,6.18h-5.63a4.17,4.17,0,0,0-1.08-3.07,4.43,4.43,0,0,0-3.09-.93,3.36,3.36,0,0,0-3.08,1.57,10.05,10.05,0,0,0-1,5V389a11.19,11.19,0,0,0,.94,5.36,3.43,3.43,0,0,0,3.24,1.61,4.33,4.33,0,0,0,3-.92,3.9,3.9,0,0,0,1.1-2.91Z"/><path class="cls-1" d="M215,391.75h-3.06V400h-5.64V376.61h9.21a10.32,10.32,0,0,1,6.52,1.85,6.27,6.27,0,0,1,2.35,5.22,7.6,7.6,0,0,1-1,4.05,7,7,0,0,1-3.1,2.6l4.89,9.46V400H219.1Zm-3.06-4.35h3.57a3.2,3.2,0,0,0,2.42-.84,3.25,3.25,0,0,0,.82-2.37,3.31,3.31,0,0,0-.82-2.37,3.17,3.17,0,0,0-2.42-.87h-3.57Z"/><path class="cls-1" d="M247.22,390.09h-8.88v5.6h10.49V400H232.7V376.61h16.16V381H238.34v4.94h8.88Z"/><path class="cls-1" d="M269.37,395.65h-7.74L260.28,400h-6l8.59-23.42h5.3L276.8,400h-6.07ZM263,391.3h5l-2.53-8.13Z"/><path class="cls-1" d="M299.9,381h-7V400h-5.65V381h-6.9v-4.36H299.9Z"/><path class="cls-1" d="M313.23,400H307.6V376.61h5.63Z"/><path class="cls-1" d="M331.18,393.66l4.66-17.05h6.31L334.27,400h-6.18l-7.81-23.42h6.25Z"/><path class="cls-1" d="M363.32,390.09h-8.88v5.6h10.49V400H348.8V376.61H365V381H354.44v4.94h8.88Z"/></g></g></svg>