<svg xmlns="http://www.w3.org/2000/svg" viewBox="0 0 200 150"><defs><style>.cls-1{fill:#4372b8;}.cls-2{fill:#fff;}</style></defs><title>questionmark</title><g id="Layer_2" data-name="Layer 2"><g id="Layer_1-2" data-name="Layer 1"><rect class="cls-1" width="200" height="150"/><path class="cls-2" d="M92.61,75.94a5.16,5.16,0,0,1,3.85-1.57q5.91,0,9.5-2.77c2.39-1.86,3.58-4.72,3.58-8.61a9.65,9.65,0,0,0-3.22-7.43,11.45,11.45,0,0,0-8.07-3,12.76,12.76,0,0,0-8.69,3.31,6.58,6.58,0,0,1-4.48,2,4.74,4.74,0,0,1-3-1.08,5,5,0,0,1-.62-8A23.06,23.06,0,0,1,89,43.68a23.62,23.62,0,0,1,9.27-1.83,22.56,22.56,0,0,1,11.11,2.77,21.19,21.19,0,0,1,8,7.66,20.33,20.33,0,0,1,3,10.71q0,8.61-4.93,13.62a22.56,22.56,0,0,1-13.09,6.28c-.3.12-.44.26-.44.44v3.32a5.38,5.38,0,0,1-1.53,3.9,5.53,5.53,0,0,1-7.7,0,5.38,5.38,0,0,1-1.53-3.9V79.84A5.38,5.38,0,0,1,92.61,75.94ZM92,106.77a5.43,5.43,0,0,1-1.38-4v-1.52A4.84,4.84,0,0,1,96,95.88h1.17a4.85,4.85,0,0,1,5.37,5.38v1.52a4.84,4.84,0,0,1-5.37,5.37H96A5.43,5.43,0,0,1,92,106.77Z"/></g></g></svg>